<?xml version="1.0" standalone="no"?>
<!DOCTYPE svg PUBLIC "-//W3C//DTD SVG 20010904//EN"
 "http://www.w3.org/TR/2001/REC-SVG-20010904/DTD/svg10.dtd">
<svg version="1.0" xmlns="http://www.w3.org/2000/svg"
 width="1700.000000pt" height="1700.000000pt" viewBox="0 0 1700.000000 1700.000000"
 preserveAspectRatio="xMidYMid meet">

<g transform="translate(0.000000,1700.000000) scale(0.100000,-0.100000)"
fill="#000000" stroke="none">
<path d="M9638 15176 c-101 -27 -184 -114 -214 -223 -58 -216 132 -422 353
-382 175 32 292 204 253 371 -43 178 -216 281 -392 234z m177 -53 c109 -37
185 -160 172 -276 -18 -150 -169 -260 -313 -228 -208 47 -283 293 -135 441 75
75 175 98 276 63z"/>
<path d="M9638 15053 c-16 -4 -18 -21 -18 -173 0 -93 4 -171 9 -174 5 -4 16
-3 25 0 13 5 16 22 16 80 0 73 0 74 25 74 39 0 69 -38 84 -102 11 -52 15 -57
37 -56 17 2 23 7 19 17 -3 8 -10 35 -16 60 -6 25 -17 57 -25 69 -14 22 -14 26
5 46 47 50 35 127 -24 151 -33 14 -100 18 -137 8z m125 -50 c43 -39 5 -113
-58 -113 l-35 0 0 64 c0 42 4 66 13 70 18 7 60 -3 80 -21z"/>
<path d="M7831 14850 c-133 -36 -187 -74 -404 -289 -108 -107 -196 -199 -194
-205 2 -5 618 -624 1369 -1375 1341 -1342 1366 -1367 1405 -1446 96 -190 95
-377 -3 -568 -35 -68 -121 -155 -1406 -1437 -752 -751 -1368 -1370 -1368
-1375 0 -21 376 -384 439 -424 96 -61 184 -86 311 -86 124 0 211 23 307 82 46
29 447 423 1630 1603 1451 1448 1571 1570 1605 1636 45 84 78 206 78 287 0 86
-27 192 -73 282 -39 79 -65 105 -1606 1645 -1679 1677 -1612 1614 -1761 1661
-96 30 -235 34 -329 9z"/>
<path d="M6622 13767 c-199 -199 -362 -365 -362 -370 0 -4 331 -7 735 -7 404
0 735 3 735 8 0 11 -724 732 -735 732 -6 0 -173 -163 -373 -363z"/>
<path d="M5573 12718 c-155 -155 -280 -285 -277 -290 7 -10 3404 -11 3404 0 0
4 -127 134 -283 290 l-283 282 -1139 0 -1139 0 -283 -282z"/>
<path d="M4679 11823 c-171 -174 -211 -220 -242 -281 -21 -39 -35 -77 -32 -82
4 -7 887 -10 2597 -10 l2590 0 -7 28 c-18 71 -75 143 -274 345 l-205 207
-2111 0 -2112 0 -204 -207z"/>
<path d="M4400 11044 c0 -3 17 -38 37 -78 31 -59 72 -106 243 -278 l205 -208
2111 0 2110 0 205 208 c194 196 252 267 274 340 l6 22 -2595 0 c-1428 0 -2596
-3 -2596 -6z"/>
<path d="M5290 10082 c0 -4 125 -132 278 -285 l278 -277 1150 0 1149 0 278
278 c152 152 277 280 277 285 0 4 -767 7 -1705 7 -938 0 -1705 -4 -1705 -8z"/>
<path d="M6260 9114 c0 -8 731 -734 739 -734 3 0 173 167 376 370 l370 370
-743 0 c-408 0 -742 -3 -742 -6z"/>
<path d="M4335 6034 c-93 -8 -260 -35 -338 -56 -204 -54 -331 -219 -366 -478
-6 -43 -11 -365 -12 -760 l-2 -685 32 -77 c74 -177 238 -318 436 -377 100 -29
288 -51 445 -51 122 0 450 21 558 35 l42 6 0 209 c0 156 -3 211 -12 217 -7 4
-186 8 -398 9 -479 1 -464 -3 -499 135 -17 69 -18 118 -16 679 1 397 5 614 12
630 16 37 45 60 99 76 37 11 127 14 431 14 l383 0 0 209 c0 116 -4 212 -9 215
-5 3 -96 15 -202 26 -189 20 -484 32 -584 24z"/>
<path d="M6395 6030 c-231 -17 -482 -42 -553 -55 -84 -16 -125 -37 -156 -78
l-21 -28 -3 -1092 c-2 -601 0 -1111 3 -1133 4 -31 12 -44 28 -49 12 -4 126
-10 253 -12 192 -4 236 -2 267 11 l37 15 0 964 0 964 43 7 c23 3 130 9 238 12
164 6 211 4 294 -11 116 -21 155 -36 173 -66 88 -143 84 -103 92 -1039 3 -448
9 -822 14 -832 6 -13 29 -18 104 -24 109 -8 435 0 453 12 16 10 5 1564 -12
1699 -24 192 -101 368 -209 476 -98 98 -190 148 -380 208 -127 39 -466 66
-665 51z"/>
<path d="M13430 6034 c-222 -15 -567 -48 -625 -60 -79 -17 -119 -37 -148 -76
-20 -27 -20 -43 -25 -1105 -4 -1030 -1 -1177 24 -1202 10 -10 498 -5 529 5
l30 10 3 966 2 965 128 12 c268 24 523 4 592 -47 33 -25 72 -93 95 -167 17
-55 19 -122 25 -870 4 -445 11 -824 15 -842 7 -31 9 -32 74 -39 89 -9 470 1
483 14 6 6 8 294 5 828 -4 709 -6 831 -21 909 -19 103 -45 181 -92 275 -112
228 -328 354 -689 404 -117 16 -314 26 -405 20z"/>
<path d="M1380 5985 c-16 -42 -12 -2321 4 -2365 l13 -35 257 -3 257 -2 24 25
25 24 0 537 c0 295 1 538 3 540 3 3 191 -277 309 -461 150 -233 272 -416 355
-532 l94 -133 319 0 c367 0 345 -7 285 93 -19 32 -127 185 -238 340 -112 155
-244 338 -292 407 -193 274 -272 386 -278 397 -5 7 38 71 108 160 360 459 465
591 569 718 112 136 215 289 203 302 -9 9 -596 9 -640 0 -34 -7 -49 -24 -170
-185 -74 -97 -229 -312 -347 -477 -117 -165 -225 -317 -240 -337 -15 -21 -30
-35 -33 -31 -4 3 -7 211 -8 462 -1 251 -4 483 -8 516 l-6 60 -278 3 -277 2
-10 -25z"/>
<path d="M11553 5983 c-5 -16 -7 -549 -5 -1187 2 -1012 5 -1162 18 -1188 l15
-29 253 3 c235 3 256 4 275 22 l22 20 -3 1165 c-2 894 -6 1172 -15 1194 l-13
27 -270 0 -270 0 -7 -27z"/>
<path d="M8253 5962 c-29 -4 -56 -12 -60 -17 -5 -6 -6 -410 -3 -900 l5 -890
29 -80 c16 -43 47 -111 70 -150 48 -83 179 -216 257 -262 232 -138 635 -149
1011 -27 45 14 51 14 190 -20 411 -100 728 -88 983 36 151 74 242 227 281 473
12 81 16 220 19 715 2 338 1 730 -3 870 l-7 255 -185 3 c-102 2 -231 0 -287
-3 l-102 -7 -3 -881 c-4 -954 -2 -927 -59 -992 -40 -46 -97 -56 -308 -58
l-166 -2 0 785 c0 432 -1 869 -2 973 l-3 187 -218 0 c-121 0 -254 -3 -297 -7
l-77 -6 4 -963 4 -962 -131 -7 c-178 -9 -333 13 -375 55 -40 40 -42 72 -44
986 -1 486 -5 886 -8 889 -9 10 -454 15 -515 7z"/>
<path d="M4325 5028 c-3 -13 -4 -112 -3 -220 l3 -197 345 -5 c190 -3 366 -3
393 0 l47 7 0 218 0 219 -390 0 -390 0 -5 -22z"/>
</g>
</svg>
