<?xml version="1.0" standalone="no"?>
<!DOCTYPE svg PUBLIC "-//W3C//DTD SVG 20010904//EN"
 "http://www.w3.org/TR/2001/REC-SVG-20010904/DTD/svg10.dtd">
<svg version="1.0" xmlns="http://www.w3.org/2000/svg"
 width="1024.000000pt" height="1024.000000pt" viewBox="0 0 1024.000000 1024.000000"
 preserveAspectRatio="xMidYMid meet">

<g transform="translate(0.000000,1024.000000) scale(0.100000,-0.100000)"
fill="#000000" stroke="none">
<path d="M4813 8137 l-293 -152 0 -809 c0 -645 3 -806 13 -799 6 6 109 61 227
123 118 62 247 130 286 151 l70 39 265 -141 c145 -78 272 -148 282 -157 16
-14 17 24 17 796 l0 811 -107 57 c-60 32 -182 97 -273 146 -91 48 -172 88
-180 87 -8 0 -147 -69 -307 -152z"/>
<path d="M4030 7799 c-63 -33 -241 -126 -395 -206 -154 -80 -306 -160 -337
-177 l-58 -31 0 -2134 0 -2134 86 121 c207 292 447 565 717 818 l107 100 -2
1851 -3 1852 -115 -60z"/>
<path d="M6090 6445 c1 -773 4 -1405 8 -1405 5 0 12 4 17 9 6 4 200 97 433
206 l422 199 -2 965 -3 965 -56 31 c-30 18 -113 62 -185 100 -71 38 -206 110
-300 161 -95 51 -208 111 -253 134 l-81 40 0 -1405z"/>
<path d="M5674 6220 c0 -85 2 -120 3 -77 2 42 2 112 0 155 -1 42 -3 7 -3 -78z"/>
<path d="M4523 6290 c0 -41 2 -58 4 -37 2 20 2 54 0 75 -2 20 -4 3 -4 -38z"/>
<path d="M4522 6190 c0 -14 2 -19 5 -12 2 6 2 18 0 25 -3 6 -5 1 -5 -13z"/>
<path d="M7661 5953 c-96 -159 -312 -400 -466 -519 -297 -232 -729 -431 -1280
-591 -792 -229 -1327 -503 -1797 -921 -276 -245 -562 -608 -702 -892 l-57
-115 48 52 c184 197 472 402 788 561 305 152 607 259 1170 412 565 154 753
218 1010 345 211 104 496 296 586 396 28 30 44 38 36 17 -2 -7 3 -19 12 -26 9
-7 12 -12 6 -11 -22 3 -29 -2 -15 -11 13 -8 12 -10 -2 -10 -16 0 -23 -11 -19
-33 1 -5 -3 -6 -8 -3 -4 3 -20 -12 -35 -34 -14 -22 -23 -40 -19 -40 4 0 -2 -7
-13 -16 -13 -11 -14 -14 -3 -11 9 3 16 -1 16 -9 0 -7 -4 -11 -8 -8 -4 2 -10
-2 -12 -8 -3 -8 -6 -6 -6 5 -1 9 -5 17 -10 17 -5 0 -7 -8 -4 -19 5 -20 -22
-37 -32 -21 -10 17 6 34 17 19 8 -11 9 -10 5 3 -3 9 2 23 12 32 26 23 114 156
108 162 -3 3 -22 -20 -42 -50 -47 -71 -165 -206 -241 -275 -137 -126 -305
-235 -517 -336 -276 -131 -426 -177 -1152 -350 -458 -110 -767 -218 -1016
-355 -244 -135 -427 -285 -555 -455 -38 -50 -50 -70 -38 -63 129 67 308 128
462 158 237 46 340 51 967 48 617 -3 652 -1 885 43 592 113 1090 445 1467 979
269 381 430 827 488 1355 16 140 21 635 7 635 -4 0 -22 -26 -41 -57z m38 -150
c2 -198 -19 -475 -49 -646 -11 -61 -20 -118 -20 -125 0 -7 -4 -10 -10 -7 -5 3
-7 0 -4 -9 13 -33 -89 -364 -163 -531 -74 -167 -198 -389 -213 -380 -4 3 -14
-3 -21 -13 -13 -15 -12 -16 4 -3 31 25 18 0 -59 -105 -75 -103 -75 -103 -100
-88 -31 21 -30 27 4 22 34 -5 52 10 52 42 0 6 7 10 15 10 21 0 19 17 -2 24
-11 3 -7 4 7 3 18 -1 25 3 24 15 -1 10 2 16 6 13 4 -3 15 6 24 20 10 15 12 26
5 30 -7 5 -6 11 1 20 8 9 8 15 0 20 -12 8 12 35 32 35 11 0 11 2 0 9 -11 7
-10 9 3 14 9 4 13 3 10 -3 -9 -14 7 -12 29 5 10 7 15 19 11 25 -3 6 -1 9 6 8
6 -2 14 3 16 10 3 8 -1 10 -11 6 -9 -3 -16 -2 -16 3 0 6 -13 9 -30 8 -16 -1
-27 2 -24 6 5 9 44 6 61 -4 6 -4 14 0 17 9 3 8 10 13 14 10 5 -3 14 6 21 20
14 32 14 37 -1 28 -7 -4 -5 1 4 12 10 11 18 34 20 51 2 25 6 30 23 27 20 -3
20 -3 0 12 -19 14 -19 15 5 12 17 -2 25 3 28 16 2 11 0 16 -6 12 -6 -3 -13 -2
-17 3 -3 6 3 8 14 6 22 -4 29 10 33 68 2 34 5 39 24 36 9 -1 24 23 24 39 0 7
-4 10 -10 7 -6 -3 -7 1 -3 10 5 13 7 14 14 3 6 -9 9 -7 9 9 0 12 5 25 10 28 6
3 10 40 10 82 0 69 2 75 19 70 14 -3 21 2 26 20 3 14 4 28 0 31 -3 3 -5 1 -5
-4 0 -5 -12 -10 -27 -11 -16 0 -20 1 -10 4 15 4 16 7 5 21 -7 10 -8 14 -3 9 4
-4 17 1 28 10 11 10 17 13 14 6 -4 -6 -3 -14 1 -17 13 -8 35 95 30 138 -3 24
0 35 7 32 6 -2 12 6 13 17 1 16 -1 18 -7 8 -6 -9 -9 0 -8 25 2 29 6 39 18 38
15 -1 17 8 10 49 0 5 -5 5 -11 2 -5 -3 -10 -1 -10 6 0 6 8 9 19 6 17 -4 20 6
30 97 17 153 20 208 20 371 1 213 -1 239 -16 219 -6 -8 -15 -15 -19 -14 -5 1
-10 -4 -12 -12 -2 -9 0 -8 7 2 8 11 11 12 11 2 0 -7 5 -10 10 -7 6 3 10 1 10
-5 0 -6 -11 -8 -24 -6 -33 6 -49 -16 -44 -57 3 -28 1 -33 -13 -30 -20 6 -59
-13 -59 -29 0 -6 -8 -17 -17 -24 -17 -12 -16 -13 5 -9 13 2 20 0 17 -6 -4 -5
-10 -7 -14 -5 -4 3 -20 -4 -37 -15 -16 -10 -23 -19 -15 -19 11 0 11 -3 1 -14
-6 -8 -17 -13 -25 -10 -7 3 -16 0 -21 -7 -4 -7 -3 -10 4 -5 6 3 13 2 16 -3 4
-5 -4 -11 -16 -13 -14 -2 -22 -9 -20 -18 2 -8 0 -12 -4 -7 -4 4 -16 -1 -28
-10 -19 -17 -19 -17 1 12 12 17 36 44 53 60 43 40 175 205 225 283 22 33 41
61 41 62 1 0 2 -80 3 -177z m-334 -273 c3 -5 -1 -10 -10 -10 -23 0 -77 -39
-69 -51 3 -5 0 -8 -8 -7 -8 2 -12 -5 -10 -17 2 -17 1 -17 -8 -5 -9 13 -11 13
-19 0 -5 -8 -8 -17 -5 -21 2 -4 -4 -6 -13 -5 -10 0 -18 -5 -18 -11 0 -14 -39
-45 -52 -41 -13 4 -93 -54 -88 -63 3 -4 0 -11 -6 -15 -8 -4 -9 -3 -5 4 4 7 2
12 -3 12 -6 0 -11 -4 -11 -8 0 -5 -23 -19 -51 -32 -28 -14 -46 -26 -40 -28 12
-4 5 -22 -9 -22 -19 0 -1 34 26 49 32 18 146 93 154 101 3 3 19 16 36 28 17
12 67 51 110 87 81 68 89 72 99 55z m235 -55 c0 -2 -10 -9 -22 -15 -22 -11
-22 -10 -4 4 21 17 26 19 26 11z m-683 -259 c0 -7 -7 -13 -16 -12 -9 1 -15 -4
-14 -11 2 -8 -4 -10 -14 -6 -12 5 -14 3 -8 -7 5 -8 4 -11 -3 -7 -5 4 -17 4
-26 1 -15 -6 -15 -7 -1 -18 15 -10 14 -12 -4 -12 -11 0 -17 4 -15 8 9 14 -7 9
-65 -22 -64 -33 -153 -73 -228 -101 -29 -11 -52 -26 -50 -32 1 -8 -9 -11 -26
-9 -18 2 -26 -1 -22 -7 4 -7 0 -8 -11 -4 -21 8 -24 6 156 82 115 49 220 100
346 171 0 0 1 -6 1 -14z m548 4 c-3 -5 -12 -10 -18 -10 -7 0 -6 4 3 10 19 12
23 12 15 0z m165 -58 c0 -5 -7 -9 -15 -9 -8 0 -15 4 -15 9 0 4 7 8 15 8 8 0
15 -4 15 -8z m-684 -137 c-11 -8 -25 -15 -30 -15 -6 1 0 7 14 15 32 19 40 18
16 0z m-546 -56 c13 -9 13 -10 0 -6 -8 2 -27 -2 -43 -10 -21 -11 -27 -11 -25
-1 2 7 12 16 23 20 29 9 28 9 45 -3z m-85 -18 c-6 -5 -21 -11 -35 -15 -21 -5
-20 -3 5 9 35 17 42 18 30 6z m-107 -38 c-26 -9 -46 -19 -43 -22 2 -4 -5 -7
-16 -7 -10 0 -19 3 -19 6 0 8 81 37 105 38 11 1 -1 -6 -27 -15z m-98 -33 c-8
-6 -33 -15 -55 -21 -50 -13 -107 -40 -118 -53 -6 -8 -10 -7 -13 1 -3 7 -13 10
-22 7 -14 -5 -15 -4 -2 4 8 6 55 22 104 36 49 14 91 28 94 31 3 3 10 5 16 5 6
0 4 -5 -4 -10z m565 -10 c-3 -5 -12 -10 -18 -10 -7 0 -6 4 3 10 19 12 23 12
15 0z m225 -54 c0 -3 -4 -8 -10 -11 -5 -3 -10 -1 -10 4 0 6 5 11 10 11 6 0 10
-2 10 -4z m-1022 -14 c8 -6 1 -9 -19 -9 -18 0 -37 -7 -44 -16 -13 -19 -30 -24
-19 -6 4 7 0 9 -12 6 -11 -4 -31 -9 -46 -13 -16 -3 -26 -10 -23 -15 3 -4 -4
-13 -15 -19 -13 -7 -20 -7 -20 0 0 5 -5 10 -11 10 -5 0 -7 -5 -3 -11 4 -7 0
-9 -13 -5 -23 7 -55 -2 -48 -14 3 -5 -3 -6 -13 -3 -10 2 -30 0 -45 -6 -20 -8
-27 -17 -27 -37 0 -17 -5 -24 -12 -22 -7 3 -39 2 -71 -2 -125 -14 -59 17 238
113 121 39 163 51 185 56 3 0 11 -3 18 -7z m762 -6 c0 -2 -7 -7 -16 -10 -8 -3
-12 -2 -9 4 6 10 25 14 25 6z m141 -10 c-9 -11 -9 -15 1 -20 7 -3 3 -3 -9 -1
-12 3 -24 1 -28 -5 -3 -5 -11 -10 -18 -10 -6 0 4 11 23 25 41 28 47 30 31 11z
m-121 0 c0 -2 -8 -10 -17 -17 -16 -13 -17 -12 -4 4 13 16 21 21 21 13z m710
-20 c0 -2 -7 -7 -16 -10 -8 -3 -12 -2 -9 4 6 10 25 14 25 6z m-1602 -41 c-3
-3 -9 2 -12 12 -6 14 -5 15 5 6 7 -7 10 -15 7 -18z m1167 5 c-4 -6 -2 -17 5
-25 12 -15 -25 -54 -115 -120 -34 -25 -40 -27 -18 -8 26 23 30 32 20 42 -6 7
-7 12 -2 11 6 -2 13 -1 18 0 4 1 12 3 19 4 7 0 15 11 18 24 3 13 10 23 15 23
6 0 9 8 7 17 -3 14 -1 13 12 -3 15 -20 15 -19 11 4 -4 23 1 41 11 41 3 0 2 -5
-1 -10z m40 -10 c-3 -5 -12 -10 -18 -10 -7 0 -6 4 3 10 19 12 23 12 15 0z
m225 -44 c0 -2 -7 -7 -16 -10 -8 -3 -12 -2 -9 4 6 10 25 14 25 6z m-1834 -48
c4 -7 4 -10 0 -6 -9 7 -100 -22 -92 -30 9 -9 -15 -32 -33 -32 -13 1 -13 3 3
15 29 22 16 18 -58 -15 -38 -17 -66 -35 -66 -44 0 -8 -5 -18 -11 -22 -8 -4 -9
1 -4 16 6 20 5 21 -14 11 -12 -7 -21 -19 -21 -29 0 -15 -2 -15 -10 -2 -6 10
-10 11 -10 3 0 -7 -11 -13 -25 -13 -31 0 -76 -20 -69 -32 3 -5 2 -8 -3 -7 -24
4 -45 -3 -63 -21 -11 -11 -20 -18 -20 -15 0 3 -27 -8 -60 -25 -36 -18 -60 -37
-60 -46 0 -10 -6 -14 -15 -10 -19 7 -80 -29 -80 -46 0 -7 -12 -13 -27 -13 -35
-1 -243 -145 -243 -169 0 -6 -7 -11 -15 -11 -20 0 -80 -44 -61 -45 8 0 24 8
35 17 18 15 18 14 -1 -8 -13 -14 -23 -32 -24 -40 0 -8 -4 -4 -10 9 -5 13 -13
20 -19 17 -6 -4 -8 -11 -4 -16 3 -6 0 -9 -7 -7 -8 1 -31 -10 -52 -27 -36 -27
-38 -30 -21 -42 18 -13 17 -14 -26 -17 -28 -1 -53 -29 -55 -60 -1 -12 -6 -19
-11 -16 -5 3 -7 12 -6 19 3 13 1 13 -12 2 -9 -7 -13 -17 -10 -22 3 -5 2 -9 -3
-8 -19 3 -25 -2 -14 -15 9 -10 8 -16 -4 -26 -8 -7 -12 -17 -8 -23 3 -5 2 -7
-4 -4 -13 8 -76 -31 -68 -42 3 -5 1 -12 -5 -16 -16 -10 -12 -28 5 -21 8 3 15
1 15 -4 0 -18 -27 -10 -42 11 -12 20 -15 20 -27 5 -12 -14 -12 -16 3 -10 9 3
16 2 16 -4 0 -6 -13 -13 -29 -17 -29 -6 -64 -35 -43 -35 6 0 14 5 17 10 12 20
22 9 22 -24 0 -26 -3 -31 -13 -22 -7 7 -8 13 -2 17 7 4 7 9 0 13 -6 4 -14 0
-19 -7 -4 -8 -18 -19 -31 -26 -12 -7 -20 -16 -17 -21 3 -5 1 -11 -5 -15 -5 -3
-10 -1 -10 6 0 10 -3 10 -11 2 -14 -14 -2 -36 14 -27 7 4 8 3 4 -2 -5 -5 -13
-10 -18 -10 -5 -1 -14 -2 -20 -3 -5 0 -7 -5 -4 -11 3 -5 0 -7 -8 -4 -20 7 -31
-14 -17 -31 10 -12 9 -16 -3 -21 -9 -3 -14 -13 -10 -22 3 -12 2 -13 -4 -5 -7
10 -14 9 -31 -3 -12 -8 -20 -20 -17 -25 4 -5 -1 -9 -9 -9 -9 0 -15 -3 -15 -7
1 -5 1 -17 -1 -28 l-1 -20 -9 20 c-5 12 -9 14 -9 6 -1 -8 -8 -22 -17 -32 -12
-14 -13 -22 -4 -38 6 -12 7 -21 3 -20 -21 3 -31 -3 -41 -27 -7 -14 -17 -22
-22 -19 -9 6 -14 -8 -11 -28 1 -5 -2 -6 -7 -3 -4 2 -13 -4 -20 -15 -7 -10 -9
-19 -5 -19 11 1 60 29 50 30 -12 0 12 40 25 40 6 0 16 -7 22 -15 10 -12 14
-12 36 5 20 16 21 19 5 13 -15 -5 -13 0 9 20 22 21 32 24 42 16 13 -10 18 -6
15 13 0 4 6 5 15 1 11 -4 15 -1 12 12 -2 10 3 20 11 23 8 3 11 0 7 -7 -5 -7
-1 -9 9 -5 14 6 14 8 -2 20 -17 13 -17 13 0 14 9 0 17 -4 17 -10 0 -5 15 -1
33 9 17 10 31 24 29 31 -1 6 2 9 8 5 15 -9 47 18 44 38 -3 20 7 22 25 5 11
-11 12 -10 6 0 -4 8 -2 13 6 11 21 -3 50 12 43 22 -3 5 2 12 11 15 9 4 14 12
11 20 -3 8 9 15 37 19 23 4 45 13 49 19 5 7 8 4 8 -7 0 -10 4 -16 10 -12 5 3
7 13 4 23 -5 14 -4 15 5 2 9 -13 12 -13 23 -1 10 10 10 12 1 7 -7 -4 -13 -2
-13 4 0 8 10 10 28 6 22 -5 24 -4 9 4 -20 13 -14 32 7 24 8 -3 17 0 21 5 3 6
11 9 16 5 5 -3 6 -10 3 -16 -4 -7 -2 -8 5 -4 6 4 9 12 6 17 -4 5 8 9 24 9 17
0 31 5 31 11 0 5 4 8 9 4 5 -3 12 -1 16 5 3 5 0 10 -7 10 -10 0 -9 3 2 9 8 6
18 7 22 5 4 -3 8 2 8 11 0 12 6 15 19 10 11 -3 22 -1 26 5 4 6 21 10 38 9 34
-1 170 44 161 54 -3 3 -13 3 -22 1 -12 -4 -10 -1 3 8 11 7 38 13 60 14 50 1
132 23 118 32 -11 8 -14 44 -2 36 4 -2 11 0 14 6 5 8 11 7 21 -1 7 -6 11 -15
8 -20 -3 -5 0 -9 5 -9 6 0 11 5 11 11 0 6 10 8 23 5 12 -3 16 -3 10 0 -22 10
-14 24 13 24 17 0 23 -4 19 -12 -4 -7 0 -5 8 5 9 10 18 14 21 9 4 -6 25 -4 56
6 27 8 47 19 44 23 -2 4 4 5 15 2 10 -3 22 1 26 8 5 8 4 10 -3 5 -7 -4 -12 -3
-12 2 0 14 33 20 80 15 33 -4 41 -2 35 8 -6 9 -3 11 9 6 20 -8 68 2 62 12 -3
4 12 7 31 7 20 0 38 5 40 11 2 5 14 8 27 6 16 -3 32 3 46 17 12 12 28 19 37
16 22 -9 55 3 47 16 -5 7 -1 7 11 1 10 -6 27 -8 39 -5 12 3 19 2 16 -1 -3 -3
-66 -22 -140 -42 -441 -121 -748 -223 -1014 -339 -71 -30 -133 -53 -139 -49
-6 3 -7 1 -3 -5 4 -6 -30 -29 -85 -57 -50 -25 -88 -41 -84 -34 5 7 3 10 -6 7
-8 -3 -13 -10 -12 -14 1 -5 -44 -38 -100 -74 -56 -35 -126 -81 -155 -102 -29
-22 -58 -36 -64 -32 -6 4 -8 3 -5 -3 6 -10 -104 -103 -121 -103 -4 1 4 10 17
20 13 11 19 20 14 20 -6 0 -18 -9 -28 -20 -10 -11 -14 -20 -10 -20 11 0 -59
-73 -107 -111 l-37 -30 40 72 c21 39 39 73 39 75 0 13 69 102 75 96 5 -4 5 -1
1 6 -9 15 83 145 213 302 155 185 299 325 536 518 53 43 261 184 350 237 179
106 404 217 600 295 84 34 82 33 91 18z m554 -22 c0 -2 -7 -7 -16 -10 -8 -3
-12 -2 -9 4 6 10 25 14 25 6z m843 -61 c0 -6 -30 -32 -69 -58 -192 -134 -454
-262 -714 -350 -150 -51 -442 -137 -460 -136 -10 0 -11 2 -2 6 6 2 10 8 7 12
-2 5 7 6 20 3 14 -2 39 4 59 16 20 12 44 18 55 15 16 -4 21 -1 21 13 0 14 2
16 9 6 7 -11 24 -9 92 13 46 15 91 29 99 33 8 3 18 6 22 6 3 1 10 5 15 10 5 6
2 6 -7 1 -8 -4 -6 1 5 12 18 18 21 18 32 4 11 -14 13 -14 26 3 8 11 19 16 26
12 18 -11 78 15 92 40 9 18 16 21 30 14 23 -13 39 -13 39 1 0 5 -6 7 -12 3
-10 -5 -10 -4 -1 6 6 7 31 13 55 14 37 1 43 4 40 21 -2 15 0 16 6 7 8 -11 10
-11 15 1 3 8 0 21 -6 28 -10 11 -9 11 5 0 10 -7 15 -17 12 -22 -6 -10 7 -12
30 -3 9 3 16 12 16 20 0 10 7 13 25 8 21 -5 24 -3 18 12 -5 14 -3 16 11 11 19
-8 89 26 78 38 -4 5 -2 5 5 1 7 -4 17 2 23 14 6 11 20 20 31 20 31 0 104 41
90 50 -10 5 -8 9 4 13 9 4 13 3 10 -3 -3 -6 -2 -10 4 -10 5 0 15 8 20 18 6 9
11 14 11 9 0 -4 18 5 40 19 30 20 38 30 28 36 -9 6 -5 7 9 3 19 -5 22 -3 16
11 -4 11 -2 15 6 13 7 -3 13 -9 14 -14z m332 -5 c-3 -5 -12 -10 -18 -10 -7 0
-6 4 3 10 19 12 23 12 15 0z m74 -3 c-2 -2 -17 -11 -34 -21 l-30 -17 24 20
c13 12 28 21 34 21 6 0 8 -1 6 -3z m-1624 -67 c-3 -5 -12 -10 -18 -10 -7 0 -6
4 3 10 19 12 23 12 15 0z m1549 -14 c-10 -8 -21 -12 -24 -10 -5 6 21 24 34 24
6 0 1 -6 -10 -14z m-1534 -1 c0 -2 -10 -9 -22 -15 -22 -11 -22 -10 -4 4 21 17
26 19 26 11z m1310 -24 c3 -2 -3 -1 -12 2 -20 7 -25 -9 -5 -16 11 -5 -37 -11
-56 -8 -5 1 -6 -8 -2 -19 4 -13 1 -22 -9 -26 -8 -3 -14 -11 -12 -17 1 -7 1 -9
-1 -5 -3 4 -15 0 -29 -8 -13 -9 -24 -13 -24 -10 0 4 -6 1 -13 -6 -8 -7 -12
-21 -9 -32 4 -13 1 -17 -7 -12 -6 4 -8 13 -5 19 4 7 3 8 -1 4 -5 -4 -10 -15
-11 -24 -2 -9 -10 -20 -19 -25 -8 -5 -13 -14 -9 -20 4 -7 0 -7 -13 0 -12 7
-25 7 -34 1 -10 -6 -11 -9 -1 -9 7 0 10 -4 7 -10 -3 -5 -11 -10 -16 -10 -6 0
-7 5 -3 11 4 7 1 10 -7 7 -8 -3 -14 -11 -14 -18 0 -7 -8 -14 -18 -16 -11 -1
-22 -6 -25 -10 -4 -4 1 -4 10 -1 10 3 20 2 23 -3 4 -6 -7 -10 -24 -10 -16 0
-32 -6 -34 -12 -4 -9 -6 -8 -6 2 0 8 34 40 76 70 41 30 119 96 172 146 96 92
99 93 131 65z m-1304 -6 c-11 -8 -25 -15 -30 -15 -6 1 0 7 14 15 32 19 40 18
16 0z m724 -29 c0 -2 -7 -7 -16 -10 -8 -3 -12 -2 -9 4 6 10 25 14 25 6z m965
-16 c-3 -5 -12 -10 -18 -10 -7 0 -6 4 3 10 19 12 23 12 15 0z m-2451 -32 c-10
-13 -19 -24 -20 -26 -1 -2 -4 4 -8 13 -4 10 2 19 17 25 32 13 32 12 11 -12z
m796 7 c0 -2 -10 -9 -22 -15 -22 -11 -22 -10 -4 4 21 17 26 19 26 11z m1220 1
c0 -3 -4 -8 -10 -11 -5 -3 -10 -1 -10 4 0 6 5 11 10 11 6 0 10 -2 10 -4z m420
-11 c0 -2 -10 -9 -22 -15 -22 -11 -22 -10 -4 4 21 17 26 19 26 11z m-490 -42
c-8 -3 -22 -11 -30 -17 -13 -10 -13 -9 -1 7 7 9 21 17 30 16 13 0 14 -1 1 -6z
m-1425 -23 c-3 -6 -21 -17 -38 -26 -36 -19 -31 -9 10 17 34 21 36 22 28 9z
m1600 -16 c-26 -20 -55 -36 -55 -30 0 5 63 46 70 46 3 -1 -4 -8 -15 -16z m185
1 c-7 -8 -17 -15 -23 -15 -6 0 -2 7 9 15 25 19 30 19 14 0z m-165 -15 c-3 -6
-21 -17 -38 -26 -36 -19 -31 -9 10 17 34 21 36 22 28 9z m-1715 -24 c0 -2 -7
-7 -16 -10 -8 -3 -12 -2 -9 4 6 10 25 14 25 6z m1715 -6 c-3 -6 -21 -17 -38
-26 -36 -19 -31 -9 10 17 34 21 36 22 28 9z m-285 -15 c0 -2 -10 -9 -22 -15
-22 -11 -22 -10 -4 4 21 17 26 19 26 11z m-770 -59 c0 -3 -4 -8 -10 -11 -5 -3
-10 -1 -10 4 0 6 5 11 10 11 6 0 10 -2 10 -4z m564 -18 c-16 -13 -32 -22 -36
-20 -14 4 -8 -11 10 -24 15 -12 12 -12 -16 -4 -34 9 -52 -5 -37 -29 3 -6 0 -9
-7 -6 -7 3 -24 -4 -37 -14 l-23 -18 29 2 c16 1 36 5 44 9 8 4 6 1 -4 -7 -13
-11 -32 -14 -62 -11 -31 4 -47 1 -59 -11 -14 -15 -20 -12 -17 7 0 4 -6 5 -15
1 -9 -3 -12 -8 -5 -12 6 -4 7 -12 1 -21 -8 -13 -10 -12 -10 3 0 10 -4 16 -10
12 -5 -3 -6 -13 -3 -23 4 -13 2 -13 -10 3 -14 19 -16 19 -22 3 -4 -10 -11 -18
-17 -18 -5 0 -6 5 -2 12 4 7 3 8 -4 4 -7 -4 -12 -14 -12 -22 0 -8 4 -13 9 -9
5 3 12 1 16 -5 3 -5 -2 -10 -12 -11 -10 -1 -29 -2 -43 -2 -14 -1 -28 2 -31 7
-4 5 -12 5 -19 1 -9 -6 -9 -9 0 -15 8 -5 7 -9 -5 -13 -9 -4 -13 -3 -10 3 9 14
-4 13 -58 -6 -26 -9 -44 -20 -41 -25 3 -5 11 -6 17 -2 8 5 8 2 0 -9 -7 -8 -10
-17 -7 -20 3 -3 0 -9 -7 -14 -8 -4 -10 -3 -5 4 4 7 1 12 -6 12 -9 0 -9 3 2 10
13 8 12 10 -2 10 -10 0 -18 -4 -18 -8 0 -5 -17 -16 -37 -25 -30 -14 -34 -14
-19 -2 20 15 19 15 -1 15 -20 0 -47 -22 -38 -32 3 -2 -2 -5 -10 -5 -8 0 -15 4
-15 9 0 4 5 8 12 8 6 0 9 2 6 5 -9 9 -58 -6 -58 -17 0 -6 7 -7 16 -4 21 8 8
-11 -18 -25 -16 -9 -19 -8 -13 2 6 9 2 11 -13 7 -12 -4 -22 -2 -22 3 0 5 -5 9
-11 9 -6 0 -8 -9 -4 -20 4 -12 2 -20 -5 -20 -6 0 -9 4 -6 9 3 5 -1 11 -9 15
-8 3 -17 1 -20 -4 -3 -4 1 -10 7 -13 7 -2 -20 -6 -60 -8 -39 -2 -72 -1 -72 2
0 3 55 20 123 38 67 18 148 42 179 53 31 11 62 17 69 12 7 -4 10 -3 6 4 -4 6
16 17 50 28 32 10 84 31 116 46 31 15 60 28 63 28 3 0 33 14 66 30 34 17 67
29 75 26 7 -3 12 -1 10 5 -1 5 32 28 73 51 41 22 84 47 95 54 32 23 40 16 9
-8z m28 -5 c-6 -2 -10 -9 -6 -14 3 -5 0 -9 -5 -9 -12 0 -14 13 -4 23 3 4 11 7
17 6 6 0 5 -3 -2 -6z m518 2 c0 -2 -10 -9 -22 -15 -22 -11 -22 -10 -4 4 21 17
26 19 26 11z m-2590 -25 c0 -5 -2 -10 -4 -10 -3 0 -8 5 -11 10 -3 6 -1 10 4
10 6 0 11 -4 11 -10z m750 6 c0 -2 -7 -7 -16 -10 -8 -3 -12 -2 -9 4 6 10 25
14 25 6z m-40 -20 c0 -2 -8 -10 -17 -17 -16 -13 -17 -12 -4 4 13 16 21 21 21
13z m1645 -6 c-3 -5 -16 -15 -28 -21 -19 -9 -19 -8 3 10 28 23 34 26 25 11z
m-245 -7 c0 -5 -12 -14 -28 -20 l-27 -13 24 20 c25 22 31 24 31 13z m155 -3
c-3 -5 -12 -10 -18 -10 -7 0 -6 4 3 10 19 12 23 12 15 0z m20 -10 c-3 -5 -16
-15 -28 -21 -19 -9 -19 -8 3 10 28 23 34 26 25 11z m-1845 -4 c0 -2 -7 -7 -16
-10 -8 -3 -12 -2 -9 4 6 10 25 14 25 6z m279 1 c-2 -1 -13 -9 -24 -17 -19 -14
-19 -14 -6 3 7 9 18 17 24 17 6 0 8 -1 6 -3z m1636 -7 c-3 -5 -16 -15 -28 -21
-21 -10 -21 -9 2 10 25 23 36 27 26 11z m-2115 -14 c0 -2 -7 -7 -16 -10 -8 -3
-12 -2 -9 4 6 10 25 14 25 6z m190 -11 c0 -2 -13 -11 -30 -20 -38 -19 -40 -11
-2 9 31 17 32 18 32 11z m1770 -9 c0 -2 -7 -7 -16 -10 -8 -3 -12 -2 -9 4 6 10
25 14 25 6z m340 0 c0 -2 -8 -10 -17 -17 -16 -13 -17 -12 -4 4 13 16 21 21 21
13z m-665 -26 c-3 -5 -12 -10 -18 -10 -7 0 -6 4 3 10 19 12 23 12 15 0z m335
5 c0 -2 -13 -11 -30 -20 -38 -19 -40 -11 -2 9 31 17 32 18 32 11z m-1850 -10
c0 -2 -10 -9 -22 -15 -22 -11 -22 -10 -4 4 21 17 26 19 26 11z m554 -10 c-4
-8 -10 -15 -15 -15 -4 0 -6 7 -3 15 4 8 10 15 15 15 4 0 6 -7 3 -15z m991 5
c-3 -5 -12 -10 -18 -10 -7 0 -6 4 3 10 19 12 23 12 15 0z m190 0 c-3 -5 -12
-10 -18 -10 -7 0 -6 4 3 10 19 12 23 12 15 0z m120 -10 c-3 -6 -21 -17 -38
-26 -36 -19 -31 -9 10 17 34 21 36 22 28 9z m200 -10 c-3 -5 -12 -10 -18 -10
-7 0 -6 4 3 10 19 12 23 12 15 0z m-505 -4 c0 -3 -4 -8 -10 -11 -5 -3 -10 -1
-10 4 0 6 5 11 10 11 6 0 10 -2 10 -4z m220 -11 c-7 -8 -17 -15 -23 -15 -6 0
-2 7 9 15 25 19 30 19 14 0z m110 10 c0 -2 -10 -9 -22 -15 -22 -11 -22 -10 -4
4 21 17 26 19 26 11z m210 1 c0 -2 -12 -11 -27 -20 l-28 -17 24 20 c23 21 31
25 31 17z m-620 -10 c0 -2 -7 -7 -16 -10 -8 -3 -12 -2 -9 4 6 10 25 14 25 6z
m40 -11 c-7 -8 -17 -15 -23 -15 -6 0 -2 7 9 15 25 19 30 19 14 0z m160 10 c0
-2 -10 -9 -22 -15 -22 -11 -22 -10 -4 4 21 17 26 19 26 11z m-70 -9 c0 -2 -8
-10 -17 -17 -16 -13 -17 -12 -4 4 13 16 21 21 21 13z m521 -19 c-10 -9 -11 -8
-5 6 3 10 9 15 12 12 3 -3 0 -11 -7 -18z m58 20 c-2 -1 -13 -9 -24 -17 -19
-14 -19 -14 -6 3 7 9 18 17 24 17 6 0 8 -1 6 -3z m-2590 -21 c-2 -2 -15 -9
-29 -15 -24 -11 -24 -11 -6 3 16 13 49 24 35 12z m2441 0 c0 -2 -8 -10 -17
-17 -16 -13 -17 -12 -4 4 13 16 21 21 21 13z m-250 -16 c-8 -6 -24 -15 -35
-21 -16 -8 -15 -6 4 10 13 12 28 21 35 21 6 0 4 -5 -4 -10z m42 -3 c-6 -7 -30
-23 -54 -36 -52 -29 -43 -17 15 21 48 31 53 33 39 15z m-462 -1 c0 -3 -4 -8
-10 -11 -5 -3 -10 -1 -10 4 0 6 5 11 10 11 6 0 10 -2 10 -4z m60 0 c0 -2 -8
-10 -17 -17 -16 -13 -17 -12 -4 4 13 16 21 21 21 13z m210 0 c0 -2 -7 -7 -16
-10 -8 -3 -12 -2 -9 4 6 10 25 14 25 6z m45 -6 c-3 -5 -12 -10 -18 -10 -7 0
-6 4 3 10 19 12 23 12 15 0z m275 6 c0 -2 -8 -10 -17 -17 -16 -13 -17 -12 -4
4 13 16 21 21 21 13z m360 -24 c0 -21 -254 -277 -353 -356 -42 -33 -50 -36
-65 -24 -15 12 -16 11 -4 -4 12 -15 5 -23 -60 -68 -351 -248 -755 -383 -1213
-408 -173 -9 -310 -9 -720 0 -489 10 -724 -15 -995 -104 -52 -17 -121 -43
-152 -58 -47 -22 -55 -24 -47 -9 5 10 19 25 31 33 12 9 18 16 13 16 -5 0 6 16
25 35 19 19 40 35 47 35 7 0 13 5 13 11 0 5 -6 7 -12 3 -28 -17 117 112 176
157 84 63 223 147 348 210 139 70 443 187 455 175 2 -2 -18 -12 -46 -21 -28
-9 -51 -21 -51 -25 0 -5 -8 -6 -17 -3 -16 6 -16 5 -3 -11 13 -17 12 -18 -25
-15 -47 4 -132 -20 -113 -32 6 -4 21 -3 32 2 21 10 21 10 1 -6 -11 -8 -26 -13
-33 -10 -7 3 -23 0 -34 -6 -15 -8 -19 -8 -14 0 4 6 4 11 -1 11 -14 -1 -52 -25
-54 -35 -4 -14 -29 -38 -29 -28 0 5 5 14 12 21 18 18 3 15 -32 -6 -16 -10 -27
-21 -24 -25 3 -3 -5 -3 -18 0 -15 3 -19 2 -10 -4 9 -7 6 -13 -12 -22 -15 -9
-23 -19 -19 -30 3 -10 2 -12 -4 -5 -9 13 -66 16 -58 4 3 -4 -1 -13 -9 -19 -11
-9 -15 -9 -18 0 -3 8 -15 1 -31 -17 -15 -16 -25 -34 -23 -41 3 -6 -3 -17 -12
-25 -15 -12 -16 -11 -3 5 12 15 9 21 -11 18 -5 0 -8 3 -8 9 0 5 -7 7 -16 3
-11 -4 -12 -8 -4 -13 9 -5 9 -9 1 -14 -6 -4 -11 -3 -11 3 0 6 -7 8 -15 5 -8
-4 -15 -10 -15 -16 0 -5 4 -7 9 -3 5 3 13 0 17 -7 4 -7 4 -10 -1 -6 -4 4 -17
3 -28 -3 -15 -8 -18 -8 -12 1 5 8 3 11 -6 8 -8 -3 -14 -11 -14 -19 0 -8 -7
-14 -15 -14 -26 -1 -38 -14 -33 -35 8 -30 -13 -49 -53 -46 -24 2 -34 -1 -34
-11 0 -10 7 -12 23 -8 19 5 20 4 5 -5 -25 -15 -22 -47 5 -61 19 -11 21 -10 9
3 -11 13 -10 16 5 14 10 0 17 5 16 12 -2 6 2 12 7 12 14 0 13 -13 -2 -28 -17
-17 13 -16 31 1 11 10 13 10 7 0 -10 -17 10 -16 116 6 48 10 95 25 105 32 9 8
14 9 11 4 -4 -7 6 -11 25 -12 18 -1 23 1 13 4 -11 3 -26 11 -34 19 -11 12 -11
14 2 14 8 0 17 -4 20 -9 9 -15 48 -21 43 -7 -4 9 9 13 44 14 35 1 49 -3 49
-13 0 -11 6 -11 33 -3 37 13 528 18 521 6 -3 -4 7 -8 23 -8 18 0 23 3 15 8 -7
5 14 8 46 7 32 -1 64 -5 71 -10 10 -5 12 -4 7 3 -5 8 5 12 33 12 22 0 43 -4
46 -10 3 -5 17 -10 31 -10 14 0 23 4 20 8 -2 4 4 9 15 9 11 1 17 -2 14 -8 -4
-5 12 -9 37 -8 32 0 38 2 23 9 -13 5 6 9 60 11 98 5 134 1 114 -12 -9 -6 1 -9
31 -8 34 0 40 2 25 9 -18 8 -17 9 7 9 15 1 30 -3 33 -9 3 -5 11 -10 16 -10 6
0 8 4 5 9 -3 5 8 11 24 13 17 3 30 1 30 -3 0 -4 10 -5 23 -2 12 3 39 5 59 5
21 0 40 4 44 9 3 6 12 5 22 -3 9 -7 13 -8 9 -2 -4 7 4 9 24 6 16 -2 35 1 43 7
7 6 22 8 31 4 11 -4 16 -2 12 3 -3 6 9 8 31 6 32 -4 35 -3 24 11 -9 11 -10 17
-2 22 14 9 43 -2 36 -14 -3 -5 3 -7 14 -4 11 3 20 12 20 19 0 16 16 19 25 4 3
-5 13 -10 21 -10 8 0 13 4 10 9 -3 5 1 12 10 15 8 3 13 2 10 -3 -7 -10 41 1
151 34 13 4 21 11 18 15 -8 14 17 24 63 26 45 2 97 28 87 44 -11 18 28 41 64
39 48 -3 89 10 70 22 -10 6 -10 9 -2 9 7 0 10 7 7 18 -5 14 -4 14 4 2 6 -8 8
-18 6 -22 -3 -4 0 -8 6 -8 7 0 10 6 7 13 -11 30 15 47 78 51 24 1 29 6 27 21
-2 16 -1 17 7 5 10 -15 26 -7 26 13 1 7 7 11 14 9 9 -2 12 4 8 17 -4 17 -2 19
19 11 30 -12 64 17 64 55 0 14 3 24 8 24 24 -4 53 3 66 17 9 8 19 13 24 10 4
-2 9 5 9 16 1 12 7 26 14 32 9 8 10 5 6 -12 -4 -19 -3 -21 9 -11 7 6 11 16 7
21 -3 6 0 9 8 6 7 -2 23 5 36 16 18 15 20 22 11 29 -9 6 -8 7 4 4 9 -3 22 1
29 9 11 14 8 15 -27 10 l-39 -6 35 14 c20 7 37 9 39 4 2 -6 18 5 37 23 18 18
31 36 28 41 -3 5 0 16 8 25 11 15 11 16 -7 9 -16 -6 -18 -5 -7 5 9 10 15 10
24 1 17 -17 31 -15 25 3 -4 8 -2 17 4 20 5 4 6 11 3 17 -4 7 -2 8 5 4 9 -6 9
-11 0 -22 -8 -10 -8 -14 0 -14 15 0 41 54 41 85 0 23 2 24 20 15 11 -6 20 -14
20 -18z m-1073 -1 c0 -11 -5 -17 -10 -14 -4 2 -14 1 -20 -4 -7 -4 -5 -1 5 8 9
9 14 19 11 23 -4 3 -1 6 5 6 6 0 10 -9 9 -19z m208 9 c-3 -5 -16 -15 -28 -21
-21 -10 -21 -9 2 10 25 23 36 27 26 11z m125 4 c0 -8 -19 -13 -24 -6 -3 5 1 9
9 9 8 0 15 -2 15 -3z m265 -10 c-28 -21 -55 -36 -55 -29 0 6 62 45 70 45 3 -1
-4 -8 -15 -16z m-159 -9 c-11 -8 -25 -15 -30 -15 -6 1 0 7 14 15 32 19 40 18
16 0z m204 11 c0 -8 -61 -48 -66 -43 -3 2 10 14 28 26 35 22 38 23 38 17z
m-414 -21 c-1 -8 -6 -18 -11 -22 -4 -4 -5 -2 -1 5 4 7 2 12 -6 12 -9 0 -9 3 2
10 19 12 19 13 16 -5z m-2069 -11 c-3 -3 -12 -4 -19 -1 -8 3 -5 6 6 6 11 1 17
-2 13 -5z m1753 -23 c0 -5 -7 -12 -16 -15 -14 -5 -15 -4 -4 9 14 17 20 19 20
6z m44 -3 c-5 -8 -1 -9 12 -4 14 5 16 4 8 -4 -6 -6 -24 -13 -39 -15 l-28 -3
24 19 c28 22 33 23 23 7z m91 2 c-7 -11 -79 -50 -92 -50 -7 0 87 59 95 60 2 0
0 -5 -3 -10z m145 5 c0 -2 -10 -9 -22 -15 -22 -11 -22 -10 -4 4 21 17 26 19
26 11z m500 -5 c-8 -5 -19 -10 -25 -10 -5 0 -3 5 5 10 8 5 20 10 25 10 6 0 3
-5 -5 -10z m-460 -4 c0 -2 -7 -7 -16 -10 -8 -3 -12 -2 -9 4 6 10 25 14 25 6z
m619 1 c-2 -1 -13 -9 -24 -17 -19 -14 -19 -14 -6 3 7 9 18 17 24 17 6 0 8 -1
6 -3z m-140 -11 c-2 -2 -15 -9 -29 -15 -24 -11 -24 -11 -6 3 16 13 49 24 35
12z m-849 -10 c0 -2 -7 -7 -16 -10 -8 -3 -12 -2 -9 4 6 10 25 14 25 6z m379 0
c-2 -2 -15 -9 -29 -15 -24 -11 -24 -11 -6 3 16 13 49 24 35 12z m311 -1 c0 -2
-15 -12 -32 -20 l-33 -16 25 20 c24 20 40 26 40 16z m240 0 c0 -2 -10 -9 -22
-15 -22 -11 -22 -10 -4 4 21 17 26 19 26 11z m-520 -10 c0 -2 -10 -9 -22 -15
-22 -11 -22 -10 -4 4 21 17 26 19 26 11z m30 1 c0 -2 -8 -10 -17 -17 -16 -13
-17 -12 -4 4 13 16 21 21 21 13z m260 -11 c0 -2 -10 -9 -22 -15 -22 -11 -22
-10 -4 4 21 17 26 19 26 11z m90 -4 c0 -5 -10 -11 -22 -14 -22 -6 -22 -6 -4 8
23 17 26 18 26 6z m50 4 c0 -2 -10 -9 -22 -15 -22 -11 -22 -10 -4 4 21 17 26
19 26 11z m-551 -26 c-22 -13 -31 -11 -17 5 7 8 17 12 22 9 4 -3 2 -9 -5 -14z
m-1964 1 c-3 -5 -12 -10 -18 -10 -7 0 -6 4 3 10 19 12 23 12 15 0z m1280 -5
c-22 -8 -34 -14 -27 -14 17 -1 6 -18 -21 -33 -19 -10 -21 -9 -9 4 8 10 9 19 3
22 -15 10 -61 -12 -61 -29 0 -16 -14 -18 -88 -15 -52 2 -124 -9 -118 -18 2 -4
-22 -7 -53 -8 -31 0 -49 1 -41 3 8 2 107 25 220 52 204 49 271 61 195 36z
m490 -5 c-16 -11 -34 -20 -40 -20 -12 0 46 38 60 39 6 1 -3 -8 -20 -19z m355
16 c0 -2 -12 -11 -27 -20 l-28 -17 24 20 c23 21 31 25 31 17z m59 1 c-2 -1
-13 -9 -24 -17 -19 -14 -19 -14 -6 3 7 9 18 17 24 17 6 0 8 -1 6 -3z m-689
-11 c0 -2 -7 -7 -16 -10 -8 -3 -12 -2 -9 4 6 10 25 14 25 6z m79 1 c-2 -1 -13
-9 -24 -17 -19 -14 -19 -14 -6 3 7 9 18 17 24 17 6 0 8 -1 6 -3z m641 -2 c0
-2 -18 -14 -40 -25 -48 -25 -52 -20 -7 9 31 20 47 26 47 16z m-2095 -15 c-3
-5 -16 -15 -28 -21 -19 -9 -19 -8 3 10 28 23 34 26 25 11z m2155 0 c-35 -24
-54 -31 -30 -11 14 11 30 21 35 21 6 0 3 -5 -5 -10z m380 0 c0 -5 -5 -10 -11
-10 -5 0 -7 5 -4 10 3 6 8 10 11 10 2 0 4 -4 4 -10z m-1241 -3 c-2 -1 -13 -9
-24 -17 -19 -14 -19 -14 -6 3 7 9 18 17 24 17 6 0 8 -1 6 -3z m561 -1 c0 -2
-7 -7 -16 -10 -8 -3 -12 -2 -9 4 6 10 25 14 25 6z m-1850 -21 c-7 -8 -17 -15
-23 -15 -6 0 -2 7 9 15 25 19 30 19 14 0z m1930 10 c0 -2 -10 -9 -22 -15 -22
-11 -22 -10 -4 4 21 17 26 19 26 11z m50 0 c0 -2 -10 -9 -22 -15 -22 -11 -22
-10 -4 4 21 17 26 19 26 11z m100 0 c0 -2 -10 -9 -22 -15 -22 -11 -22 -10 -4
4 21 17 26 19 26 11z m463 -10 c-3 -9 -8 -14 -10 -11 -3 3 -2 9 2 15 9 16 15
13 8 -4z m-973 1 c0 -2 -7 -7 -16 -10 -8 -3 -12 -2 -9 4 6 10 25 14 25 6z
m100 -1 c0 -2 -10 -9 -22 -15 -22 -11 -22 -10 -4 4 21 17 26 19 26 11z m70
-15 c-12 -8 -12 -10 -1 -10 8 0 12 -3 8 -6 -9 -9 -28 6 -22 17 4 5 12 9 18 9
7 0 6 -4 -3 -10z m260 5 c0 -2 -13 -11 -30 -20 -38 -19 -40 -11 -2 9 31 17 32
18 32 11z m-2129 -20 c11 6 11 5 2 -5 -12 -14 -33 -6 -33 13 0 8 3 7 9 -2 5
-8 14 -10 22 -6z m2209 11 c0 -8 -67 -46 -81 -46 -8 0 6 11 31 25 50 27 50 27
50 21z m-800 -10 c0 -2 -11 -11 -25 -20 -14 -9 -25 -13 -25 -8 0 5 10 14 23
20 27 13 27 13 27 8z m285 -6 c-3 -5 -12 -10 -18 -10 -7 0 -6 4 3 10 19 12 23
12 15 0z m145 5 c0 -2 -10 -9 -22 -15 -22 -11 -22 -10 -4 4 21 17 26 19 26 11z
m100 1 c0 -2 -7 -7 -16 -10 -8 -3 -12 -2 -9 4 6 10 25 14 25 6z m40 -1 c0 -2
-10 -9 -22 -15 -22 -11 -22 -10 -4 4 21 17 26 19 26 11z m-465 -15 c-3 -5 -12
-10 -18 -10 -7 0 -6 4 3 10 19 12 23 12 15 0z m210 0 c-3 -5 -12 -10 -18 -10
-7 0 -6 4 3 10 19 12 23 12 15 0z m55 5 c0 -2 -10 -9 -22 -15 -22 -11 -22 -10
-4 4 21 17 26 19 26 11z m315 -15 c-3 -5 -12 -10 -18 -10 -7 0 -6 4 3 10 19
12 23 12 15 0z m155 5 c0 -2 -10 -9 -22 -15 -22 -11 -22 -10 -4 4 21 17 26 19
26 11z m-1404 -30 c0 -25 -2 -25 -61 -24 -11 0 -42 0 -70 1 -55 1 -51 3 45 29
86 23 86 23 86 -6z m91 19 c-3 -3 -12 -4 -19 -1 -8 3 -5 6 6 6 11 1 17 -2 13
-5z m993 1 c0 -2 -10 -9 -22 -15 -22 -11 -22 -10 -4 4 21 17 26 19 26 11z
m460 1 c0 -2 -7 -7 -16 -10 -8 -3 -12 -2 -9 4 6 10 25 14 25 6z m144 -12 c3
-8 2 -12 -4 -9 -6 3 -10 10 -10 16 0 14 7 11 14 -7z m-1014 2 c0 -2 -7 -7 -16
-10 -8 -3 -12 -2 -9 4 6 10 25 14 25 6z m-590 -10 c0 -2 -7 -7 -16 -10 -8 -3
-12 -2 -9 4 6 10 25 14 25 6z m720 -1 c0 -2 -10 -9 -22 -15 -22 -11 -22 -10
-4 4 21 17 26 19 26 11z m290 0 c0 -2 -10 -9 -22 -15 -22 -11 -22 -10 -4 4 21
17 26 19 26 11z m100 -5 c-8 -5 -19 -10 -25 -10 -5 0 -3 5 5 10 8 5 20 10 25
10 6 0 3 -5 -5 -10z m40 -5 c-7 -8 -17 -15 -23 -15 -6 0 -2 7 9 15 25 19 30
19 14 0z m-400 -5 c-35 -24 -54 -31 -30 -11 14 11 30 21 35 21 6 0 3 -5 -5
-10z m450 6 c0 -2 -7 -7 -16 -10 -8 -3 -12 -2 -9 4 6 10 25 14 25 6z m110 -26
c-24 -15 -36 -11 -14 4 10 8 21 12 24 10 2 -3 -2 -9 -10 -14z m-1603 -2 c-18
-6 -26 -15 -23 -24 3 -8 -4 -18 -17 -24 -20 -10 -20 -10 -5 3 21 17 14 27 -19
27 -14 0 -21 -4 -18 -10 4 -6 1 -9 -6 -8 -7 2 -13 -4 -14 -12 0 -8 -7 -15 -15
-15 -8 0 -21 -4 -27 -8 -7 -5 -13 -5 -13 0 0 4 -11 9 -25 9 -14 1 -25 -2 -25
-6 0 -5 -9 -6 -20 -3 -12 3 -19 7 -17 9 6 6 242 73 257 73 8 0 2 -5 -13 -11z
m1043 -3 c-7 -8 -17 -15 -23 -15 -6 0 -2 7 9 15 25 19 30 19 14 0z m205 5 c-3
-5 -12 -10 -18 -10 -7 0 -6 4 3 10 19 12 23 12 15 0z m55 5 c0 -2 -10 -9 -22
-15 -22 -11 -22 -10 -4 4 21 17 26 19 26 11z m59 1 c-10 -9 -89 -46 -89 -41 0
6 72 44 84 45 5 0 7 -2 5 -4z m41 -1 c0 -2 -13 -11 -30 -20 -38 -19 -40 -11
-2 9 31 17 32 18 32 11z m50 0 c0 -6 -56 -35 -67 -35 -4 1 8 9 27 20 39 22 40
22 40 15z m454 -25 c-6 -6 -10 -3 -10 10 0 13 4 16 10 10 7 -7 7 -13 0 -20z
m-1004 10 c-35 -24 -54 -31 -30 -11 14 11 30 21 35 21 6 0 3 -5 -5 -10z m190
6 c0 -2 -7 -7 -16 -10 -8 -3 -12 -2 -9 4 6 10 25 14 25 6z m-168 -18 c-6 -7
-25 -22 -44 -32 -36 -20 -30 -12 16 22 32 25 44 28 28 10z m598 -3 c0 -2 -10
-9 -22 -15 -22 -11 -22 -10 -4 4 21 17 26 19 26 11z m-2493 -20 c0 -8 -4 -12
-9 -9 -5 3 -6 10 -3 15 9 13 12 11 12 -6z m203 10 c0 -2 -13 -11 -30 -20 -38
-19 -40 -11 -2 9 31 17 32 18 32 11z m2100 0 c0 -2 -13 -11 -30 -20 -38 -19
-40 -11 -2 9 31 17 32 18 32 11z m305 -5 c-3 -5 -12 -10 -18 -10 -7 0 -6 4 3
10 19 12 23 12 15 0z m135 6 c0 -2 -8 -10 -17 -17 -16 -13 -17 -12 -4 4 13 16
21 21 21 13z m-334 -13 c-8 -8 -56 -11 -51 -3 3 4 16 8 30 8 14 0 24 -3 21 -5z
m224 3 c0 -2 -8 -10 -17 -17 -16 -13 -17 -12 -4 4 13 16 21 21 21 13z m-1165
-36 c-3 -5 -12 -10 -18 -10 -7 0 -6 4 3 10 19 12 23 12 15 0z m50 0 c-3 -5
-12 -10 -18 -10 -7 0 -6 4 3 10 19 12 23 12 15 0z m-779 -9 c-4 -5 -1 -11 6
-13 8 -3 6 -6 -4 -10 -11 -5 -15 -2 -13 10 5 23 4 22 11 22 3 0 3 -4 0 -9z
m229 -1 c-3 -5 -11 -10 -16 -10 -6 0 -7 5 -4 10 3 6 11 10 16 10 6 0 7 -4 4
-10z m50 0 c-3 -5 -12 -10 -18 -10 -7 0 -6 4 3 10 19 12 23 12 15 0z m55 0
c-35 -24 -54 -31 -30 -11 14 11 30 21 35 21 6 0 3 -5 -5 -10z m880 6 c0 -2 -7
-7 -16 -10 -8 -3 -12 -2 -9 4 6 10 25 14 25 6z m80 -1 c0 -2 -10 -9 -22 -15
-22 -11 -22 -10 -4 4 21 17 26 19 26 11z m535 -5 c-3 -5 -12 -10 -18 -10 -7 0
-6 4 3 10 19 12 23 12 15 0z m45 0 c-35 -24 -54 -31 -30 -11 14 11 30 21 35
21 6 0 3 -5 -5 -10z m-790 -4 c0 -2 -7 -7 -16 -10 -8 -3 -12 -2 -9 4 6 10 25
14 25 6z m248 -21 c-3 -3 -9 2 -12 12 -6 14 -5 15 5 6 7 -7 10 -15 7 -18z
m-1376 8 c-6 -2 -9 -10 -6 -15 4 -7 2 -8 -5 -4 -13 9 -5 26 12 25 9 0 8 -2 -1
-6z m288 2 c0 -2 -10 -9 -22 -15 -22 -11 -22 -10 -4 4 21 17 26 19 26 11z
m700 1 c0 -2 -18 -15 -40 -30 -22 -14 -40 -24 -40 -22 0 5 71 56 77 56 2 0 3
-2 3 -4z m-180 -10 c0 -2 -12 -11 -27 -20 l-28 -17 24 20 c23 21 31 25 31 17z
m115 -6 c-3 -5 -16 -15 -28 -21 -19 -9 -19 -8 3 10 28 23 34 26 25 11z m90 -3
c-40 -27 -100 -60 -92 -51 13 14 91 63 102 63 5 1 1 -5 -10 -12z m905 4 c0 -5
-7 -12 -16 -15 -14 -5 -15 -4 -4 9 14 17 20 19 20 6z m-1510 -6 c0 -2 -10 -9
-22 -15 -22 -11 -22 -10 -4 4 21 17 26 19 26 11z m470 1 c0 -2 -7 -7 -16 -10
-8 -3 -12 -2 -9 4 6 10 25 14 25 6z m875 -12 c-26 -20 -55 -36 -55 -30 0 5 63
46 70 46 3 -1 -4 -8 -15 -16z m-1075 2 c0 -2 -7 -7 -16 -10 -8 -3 -12 -2 -9 4
6 10 25 14 25 6z m-150 -10 c0 -2 -25 -20 -55 -40 -30 -20 -55 -34 -55 -31 0
4 101 75 107 75 2 0 3 -2 3 -4z m555 -6 c-3 -5 -12 -10 -18 -10 -7 0 -6 4 3
10 19 12 23 12 15 0z m-220 -10 c-3 -5 -12 -10 -18 -10 -7 0 -6 4 3 10 19 12
23 12 15 0z m-925 -4 c0 -2 -12 -11 -27 -20 l-28 -17 24 20 c23 21 31 25 31
17z m1315 -6 c-3 -5 -16 -15 -28 -21 -19 -9 -19 -8 3 10 28 23 34 26 25 11z
m245 6 c0 -2 -7 -7 -16 -10 -8 -3 -12 -2 -9 4 6 10 25 14 25 6z m260 -1 c0 -2
-9 -9 -20 -15 -12 -6 -20 -7 -20 -1 0 5 8 12 18 14 9 3 18 5 20 6 1 0 2 -1 2
-4z m-1190 -10 c0 -2 -10 -9 -22 -15 -22 -11 -22 -10 -4 4 21 17 26 19 26 11z
m130 0 c0 -2 -10 -9 -22 -15 -22 -11 -22 -10 -4 4 21 17 26 19 26 11z m270 0
c0 -2 -10 -9 -22 -15 -22 -11 -22 -10 -4 4 21 17 26 19 26 11z m887 -10 c0 -8
-4 -12 -9 -9 -5 3 -6 10 -3 15 9 13 12 11 12 -6z m-1987 1 c0 -3 -4 -8 -10
-11 -5 -3 -10 -1 -10 4 0 6 5 11 10 11 6 0 10 -2 10 -4z m635 -6 c-3 -5 -16
-15 -28 -21 -19 -9 -19 -8 3 10 28 23 34 26 25 11z m934 -14 c-2 -2 -15 -9
-29 -15 -24 -11 -24 -11 -6 3 16 13 49 24 35 12z m36 -6 c-3 -5 -12 -10 -18
-10 -7 0 -6 4 3 10 19 12 23 12 15 0z m-1775 -15 c0 -8 -4 -15 -10 -15 -5 0
-7 7 -4 15 4 8 8 15 10 15 2 0 4 -7 4 -15z m1030 11 c0 -2 -7 -7 -16 -10 -8
-3 -12 -2 -9 4 6 10 25 14 25 6z m350 0 c0 -2 -7 -7 -16 -10 -8 -3 -12 -2 -9
4 6 10 25 14 25 6z m20 -11 c-7 -8 -17 -15 -23 -15 -6 0 -2 7 9 15 25 19 30
19 14 0z m42 3 c-6 -7 -25 -22 -44 -32 -39 -23 -32 -13 14 20 38 26 45 29 30
12z m368 7 c0 -2 -10 -9 -22 -15 -22 -11 -22 -10 -4 4 21 17 26 19 26 11z
m-1305 -25 c-3 -5 -12 -10 -18 -10 -7 0 -6 4 3 10 19 12 23 12 15 0z m1225 6
c0 -2 -7 -7 -16 -10 -8 -3 -12 -2 -9 4 6 10 25 14 25 6z m-570 -10 c0 -2 -7
-7 -16 -10 -8 -3 -12 -2 -9 4 6 10 25 14 25 6z m160 0 c0 -2 -12 -11 -27 -20
l-28 -17 24 20 c23 21 31 25 31 17z m-1910 -16 c0 -5 -4 -10 -10 -10 -5 0 -10
5 -10 10 0 6 5 10 10 10 6 0 10 -4 10 -10z m38 -4 c15 5 15 4 1 -8 -8 -7 -18
-21 -22 -30 -9 -25 -26 -23 -20 2 3 11 9 20 14 20 5 0 7 6 5 13 -1 6 -1 9 1 5
2 -4 12 -5 21 -2z m472 10 c0 -3 -4 -8 -10 -11 -5 -3 -10 -1 -10 4 0 6 5 11
10 11 6 0 10 -2 10 -4z m370 -1 c0 -2 -10 -9 -22 -15 -22 -11 -22 -10 -4 4 21
17 26 19 26 11z m1395 -5 c-3 -5 -12 -10 -18 -10 -7 0 -6 4 3 10 19 12 23 12
15 0z m55 5 c0 -6 -56 -35 -67 -35 -4 1 8 9 27 20 39 22 40 22 40 15z m-680
-19 c0 -2 -8 -10 -17 -17 -16 -13 -17 -12 -4 4 13 16 21 21 21 13z m-821 -10
c-2 -2 -15 -9 -29 -15 -24 -11 -24 -11 -6 3 16 13 49 24 35 12z m1146 -6 c-3
-5 -12 -10 -18 -10 -7 0 -6 4 3 10 19 12 23 12 15 0z m-960 -30 c-3 -5 -12
-10 -18 -10 -7 0 -6 4 3 10 19 12 23 12 15 0z m25 -14 c0 -2 -7 -7 -16 -10 -8
-3 -12 -2 -9 4 6 10 25 14 25 6z m820 0 c0 -2 -12 -11 -27 -20 l-28 -17 24 20
c23 21 31 25 31 17z m-1485 -16 c-3 -5 -12 -10 -18 -10 -7 0 -6 4 3 10 19 12
23 12 15 0z m895 -4 c0 -2 -7 -7 -16 -10 -8 -3 -12 -2 -9 4 6 10 25 14 25 6z
m590 -16 c-8 -5 -19 -10 -25 -10 -5 0 -3 5 5 10 8 5 20 10 25 10 6 0 3 -5 -5
-10z m-1483 -36 c-3 -3 -12 -4 -19 -1 -8 3 -5 6 6 6 11 1 17 -2 13 -5z m-77
-24 c-14 -11 -29 -20 -35 -20 -5 0 4 9 20 20 38 25 48 25 15 0z m665 -20 c-3
-5 -12 -10 -18 -10 -7 0 -6 4 3 10 19 12 23 12 15 0z m-876 -113 c-2 -1 -13
-9 -24 -17 -19 -14 -19 -14 -6 3 7 9 18 17 24 17 6 0 8 -1 6 -3z"/>
<path d="M7373 4358 c-2 -18 0 -20 7 -8 12 18 13 30 2 30 -4 0 -9 -10 -9 -22z"/>
<path d="M7259 4153 c-13 -16 -12 -17 4 -4 9 7 17 15 17 17 0 8 -8 3 -21 -13z"/>
<path d="M7160 5380 c-9 -6 -10 -10 -3 -10 6 0 15 5 18 10 8 12 4 12 -15 0z"/>
<path d="M5470 4669 c-12 -9 -12 -10 4 -5 11 4 23 1 28 -6 7 -10 9 -10 6 1 -6
20 -20 23 -38 10z"/>
<path d="M6899 4663 c-13 -16 -12 -17 4 -4 16 13 21 21 13 21 -2 0 -10 -8 -17
-17z"/>
<path d="M5055 3890 c3 -5 8 -10 11 -10 2 0 4 5 4 10 0 6 -5 10 -11 10 -5 0
-7 -4 -4 -10z"/>
<path d="M4020 3797 c-56 -51 -73 -74 -55 -74 8 0 12 3 10 7 -5 7 48 62 56 58
2 -2 3 -1 1 1 -1 2 5 13 15 23 25 28 12 21 -27 -15z"/>
<path d="M4747 3814 c-9 -9 2 -24 17 -24 7 0 13 7 13 15 0 15 -18 20 -30 9z"/>
<path d="M4385 3659 c-4 -6 -13 -8 -19 -6 -7 3 -13 -1 -13 -8 0 -10 6 -11 24
-2 13 5 23 14 23 19 0 11 -8 10 -15 -3z"/>
<path d="M4046 3495 c-7 -19 3 -19 28 0 19 15 19 15 -1 15 -11 0 -23 -7 -27
-15z"/>
<path d="M3724 3468 c-19 -23 -19 -23 2 -5 11 9 24 14 29 10 4 -5 5 -2 1 5 -9
16 -10 16 -32 -10z"/>
<path d="M3605 3200 c4 -6 11 -8 16 -5 14 9 11 15 -7 15 -8 0 -12 -5 -9 -10z"/>
<path d="M3530 3145 c0 -8 -5 -14 -11 -12 -6 1 -22 -15 -35 -35 -27 -42 -25
-49 5 -16 11 11 18 25 14 31 -3 5 0 8 8 5 15 -5 39 14 39 31 0 6 -4 11 -10 11
-5 0 -10 -7 -10 -15z"/>
<path d="M6495 4380 c-3 -6 1 -7 9 -4 18 7 21 14 7 14 -6 0 -13 -4 -16 -10z"/>
<path d="M6750 4365 c-16 -19 -1 -19 24 0 16 12 17 15 4 15 -8 0 -21 -7 -28
-15z"/>
<path d="M6635 4260 c-10 -11 -14 -20 -8 -20 5 0 18 9 28 20 10 11 14 20 8 20
-5 0 -18 -9 -28 -20z"/>
<path d="M6334 4054 c-18 -14 -18 -15 4 -4 12 6 22 13 22 15 0 8 -5 6 -26 -11z"/>
<path d="M5710 3806 c0 -2 9 -6 20 -9 11 -3 18 -1 14 4 -5 9 -34 13 -34 5z"/>
<path d="M6955 3760 c-3 -5 -1 -10 4 -10 6 0 11 5 11 10 0 6 -2 10 -4 10 -3 0
-8 -4 -11 -10z"/>
<path d="M4060 3304 l-25 -15 25 7 c14 3 29 10 35 15 15 14 -7 10 -35 -7z"/>
<path d="M6245 3251 c-3 -5 -2 -12 3 -15 5 -3 9 1 9 9 0 17 -3 19 -12 6z"/>
<path d="M3920 3225 c-14 -8 -20 -14 -14 -15 5 0 19 7 30 15 24 18 16 19 -16
0z"/>
<path d="M3732 3084 c-7 -8 -10 -19 -6 -26 5 -7 10 -3 16 12 10 28 7 33 -10
14z"/>
<path d="M4908 3023 c7 -3 16 -2 19 1 4 3 -2 6 -13 5 -11 0 -14 -3 -6 -6z"/>
<path d="M5218 3023 c7 -3 16 -2 19 1 4 3 -2 6 -13 5 -11 0 -14 -3 -6 -6z"/>
<path d="M3636 2996 c3 -8 13 -17 22 -21 13 -5 13 -2 -3 15 -21 24 -26 25 -19
6z"/>
<path d="M3605 2952 c-8 -22 -6 -34 5 -27 6 4 7 11 4 17 -5 8 5 9 32 5 33 -5
36 -4 19 5 -29 17 -53 17 -60 0z"/>
<path d="M3513 2870 c-13 -5 -23 -11 -23 -14 0 -7 40 6 46 15 6 10 6 10 -23
-1z"/>
<path d="M5335 3700 c3 -5 8 -10 11 -10 2 0 4 5 4 10 0 6 -5 10 -11 10 -5 0
-7 -4 -4 -10z"/>
<path d="M4690 3540 c8 -5 20 -10 25 -10 6 0 3 5 -5 10 -8 5 -19 10 -25 10 -5
0 -3 -5 5 -10z"/>
<path d="M5673 5955 c0 -22 2 -30 4 -17 2 12 2 30 0 40 -3 9 -5 -1 -4 -23z"/>
<path d="M4798 5735 l-278 -140 0 -577 c0 -591 1 -601 36 -569 5 4 122 61 259
125 138 65 253 121 258 125 4 4 6 270 5 592 l-3 584 -277 -140z"/>
<path d="M5672 5830 c0 -14 2 -19 5 -12 2 6 2 18 0 25 -3 6 -5 1 -5 -13z"/>
<path d="M4521 5704 c0 -11 3 -14 6 -6 3 7 2 16 -1 19 -3 4 -6 -2 -5 -13z"/>
</g>
</svg>
